<mxfile host="app.diagrams.net" modified="2020-12-01T03:20:33.848Z" agent="5.0 (Macintosh; Intel Mac OS X 10_14_6) AppleWebKit/537.36 (KHTML, like Gecko) Chrome/86.0.4240.198 Safari/537.36" etag="3CFPKwzCCooB60KemdYR" version="13.10.0" type="github">
  <diagram id="6sg15hHj_-Byl1abYVdN" name="第 1 页">
    <mxGraphModel dx="678" dy="409" grid="1" gridSize="10" guides="1" tooltips="1" connect="1" arrows="1" fold="1" page="1" pageScale="1" pageWidth="1169" pageHeight="1654" math="0" shadow="0">
      <root>
        <mxCell id="0" />
        <mxCell id="1" parent="0" />
        <mxCell id="R7gVYazL5rgEZHo6psz_-6" value="" style="swimlane;html=1;childLayout=stackLayout;resizeParent=1;resizeParentMax=0;horizontal=0;startSize=0;horizontalStack=0;glass=0;" vertex="1" parent="1">
          <mxGeometry x="345" y="110" width="500" height="360" as="geometry">
            <mxRectangle x="345" y="110" width="30" height="50" as="alternateBounds" />
          </mxGeometry>
        </mxCell>
        <mxCell id="R7gVYazL5rgEZHo6psz_-7" value="应用层" style="swimlane;html=1;startSize=20;horizontal=0;" vertex="1" parent="R7gVYazL5rgEZHo6psz_-6">
          <mxGeometry width="500" height="120" as="geometry">
            <mxRectangle width="500" height="20" as="alternateBounds" />
          </mxGeometry>
        </mxCell>
        <mxCell id="R7gVYazL5rgEZHo6psz_-12" value="&lt;span style=&quot;font-size: 11px&quot;&gt;JSBridge&lt;/span&gt;" style="rounded=1;whiteSpace=wrap;html=1;fillColor=#fff2cc;strokeColor=#d6b656;glass=0;" vertex="1" parent="R7gVYazL5rgEZHo6psz_-7">
          <mxGeometry x="65" y="45" width="70" height="30" as="geometry" />
        </mxCell>
        <mxCell id="R7gVYazL5rgEZHo6psz_-15" value="&lt;span style=&quot;font-size: 11px&quot;&gt;数据存储&lt;/span&gt;" style="rounded=1;whiteSpace=wrap;html=1;fillColor=#fff2cc;strokeColor=#d6b656;glass=0;" vertex="1" parent="R7gVYazL5rgEZHo6psz_-7">
          <mxGeometry x="145" y="45" width="70" height="30" as="geometry" />
        </mxCell>
        <mxCell id="R7gVYazL5rgEZHo6psz_-18" value="&lt;span style=&quot;font-size: 11px&quot;&gt;容器初始化&lt;/span&gt;" style="rounded=1;whiteSpace=wrap;html=1;fillColor=#fff2cc;strokeColor=#d6b656;glass=0;" vertex="1" parent="R7gVYazL5rgEZHo6psz_-7">
          <mxGeometry x="225" y="45" width="70" height="30" as="geometry" />
        </mxCell>
        <mxCell id="R7gVYazL5rgEZHo6psz_-17" value="&lt;font style=&quot;font-size: 11px&quot;&gt;...&lt;/font&gt;" style="rounded=1;whiteSpace=wrap;html=1;fillColor=#fff2cc;strokeColor=#d6b656;glass=0;" vertex="1" parent="R7gVYazL5rgEZHo6psz_-7">
          <mxGeometry x="305" y="45" width="70" height="30" as="geometry" />
        </mxCell>
        <mxCell id="R7gVYazL5rgEZHo6psz_-16" value="&lt;span style=&quot;font-size: 11px&quot;&gt;推送&lt;/span&gt;" style="rounded=1;whiteSpace=wrap;html=1;fillColor=#fff2cc;strokeColor=#d6b656;glass=0;" vertex="1" parent="R7gVYazL5rgEZHo6psz_-7">
          <mxGeometry x="385" y="45" width="70" height="30" as="geometry" />
        </mxCell>
        <mxCell id="R7gVYazL5rgEZHo6psz_-20" value="" style="rounded=1;arcSize=10;dashed=1;strokeColor=#000000;fillColor=none;gradientColor=none;dashPattern=8 3 1 3;strokeWidth=2;glass=0;" vertex="1" parent="R7gVYazL5rgEZHo6psz_-7">
          <mxGeometry x="52" y="35" width="416" height="50" as="geometry" />
        </mxCell>
        <mxCell id="R7gVYazL5rgEZHo6psz_-8" value="服务管理" style="swimlane;html=1;startSize=20;horizontal=0;" vertex="1" parent="R7gVYazL5rgEZHo6psz_-6">
          <mxGeometry y="120" width="500" height="120" as="geometry">
            <mxRectangle y="120" width="500" height="40" as="alternateBounds" />
          </mxGeometry>
        </mxCell>
        <mxCell id="R7gVYazL5rgEZHo6psz_-11" value="ServerManager" style="rounded=1;whiteSpace=wrap;html=1;fillColor=#f5f5f5;strokeColor=#666666;glass=0;fontColor=#333333;" vertex="1" parent="R7gVYazL5rgEZHo6psz_-8">
          <mxGeometry x="75" y="35" width="350" height="50" as="geometry" />
        </mxCell>
        <mxCell id="R7gVYazL5rgEZHo6psz_-9" value="服务层" style="swimlane;html=1;startSize=20;horizontal=0;" vertex="1" parent="R7gVYazL5rgEZHo6psz_-6">
          <mxGeometry y="240" width="500" height="120" as="geometry">
            <mxRectangle y="240" width="500" height="40" as="alternateBounds" />
          </mxGeometry>
        </mxCell>
        <mxCell id="R7gVYazL5rgEZHo6psz_-29" value="" style="rounded=1;arcSize=10;dashed=1;strokeColor=#000000;fillColor=none;gradientColor=none;dashPattern=8 3 1 3;strokeWidth=2;glass=0;" vertex="1" parent="R7gVYazL5rgEZHo6psz_-9">
          <mxGeometry x="52" y="35" width="416" height="50" as="geometry" />
        </mxCell>
        <mxCell id="R7gVYazL5rgEZHo6psz_-30" value="&lt;span style=&quot;font-size: 11px&quot;&gt;服务1&lt;/span&gt;" style="rounded=1;whiteSpace=wrap;html=1;fillColor=#f0a30a;strokeColor=#BD7000;glass=0;fontColor=#ffffff;" vertex="1" parent="R7gVYazL5rgEZHo6psz_-9">
          <mxGeometry x="65" y="45" width="70" height="30" as="geometry" />
        </mxCell>
        <mxCell id="R7gVYazL5rgEZHo6psz_-31" value="&lt;span style=&quot;font-size: 11px&quot;&gt;服务2&lt;/span&gt;" style="rounded=1;whiteSpace=wrap;html=1;fillColor=#f0a30a;strokeColor=#BD7000;glass=0;fontColor=#ffffff;" vertex="1" parent="R7gVYazL5rgEZHo6psz_-9">
          <mxGeometry x="145" y="45" width="70" height="30" as="geometry" />
        </mxCell>
        <mxCell id="R7gVYazL5rgEZHo6psz_-33" value="&lt;span style=&quot;font-size: 11px&quot;&gt;服务3&lt;/span&gt;" style="rounded=1;whiteSpace=wrap;html=1;fillColor=#f0a30a;strokeColor=#BD7000;glass=0;fontColor=#ffffff;" vertex="1" parent="R7gVYazL5rgEZHo6psz_-9">
          <mxGeometry x="225" y="45" width="70" height="30" as="geometry" />
        </mxCell>
        <mxCell id="R7gVYazL5rgEZHo6psz_-32" value="&lt;span style=&quot;font-size: 11px&quot;&gt;...&lt;/span&gt;" style="rounded=1;whiteSpace=wrap;html=1;fillColor=#f0a30a;strokeColor=#BD7000;glass=0;fontColor=#ffffff;" vertex="1" parent="R7gVYazL5rgEZHo6psz_-9">
          <mxGeometry x="305" y="45" width="70" height="30" as="geometry" />
        </mxCell>
        <mxCell id="R7gVYazL5rgEZHo6psz_-34" value="&lt;span style=&quot;font-size: 11px&quot;&gt;服务N&lt;/span&gt;" style="rounded=1;whiteSpace=wrap;html=1;fillColor=#f0a30a;strokeColor=#BD7000;glass=0;fontColor=#ffffff;" vertex="1" parent="R7gVYazL5rgEZHo6psz_-9">
          <mxGeometry x="385" y="45" width="70" height="30" as="geometry" />
        </mxCell>
        <mxCell id="R7gVYazL5rgEZHo6psz_-42" value="call" style="html=1;verticalAlign=bottom;endArrow=block;exitX=0.25;exitY=1;exitDx=0;exitDy=0;entryX=0.25;entryY=0;entryDx=0;entryDy=0;" edge="1" parent="R7gVYazL5rgEZHo6psz_-6" source="R7gVYazL5rgEZHo6psz_-20" target="R7gVYazL5rgEZHo6psz_-11">
          <mxGeometry width="80" relative="1" as="geometry">
            <mxPoint x="215" y="160" as="sourcePoint" />
            <mxPoint x="295" y="160" as="targetPoint" />
          </mxGeometry>
        </mxCell>
        <mxCell id="R7gVYazL5rgEZHo6psz_-44" value="return" style="html=1;verticalAlign=bottom;endArrow=open;dashed=1;endSize=8;entryX=0.75;entryY=1;entryDx=0;entryDy=0;exitX=0.75;exitY=0;exitDx=0;exitDy=0;" edge="1" parent="R7gVYazL5rgEZHo6psz_-6" source="R7gVYazL5rgEZHo6psz_-11" target="R7gVYazL5rgEZHo6psz_-20">
          <mxGeometry relative="1" as="geometry">
            <mxPoint x="295" y="160" as="sourcePoint" />
            <mxPoint x="215" y="160" as="targetPoint" />
          </mxGeometry>
        </mxCell>
        <mxCell id="R7gVYazL5rgEZHo6psz_-45" value="rigster" style="html=1;verticalAlign=bottom;endArrow=block;exitX=0.138;exitY=0.017;exitDx=0;exitDy=0;exitPerimeter=0;entryX=0.099;entryY=1.011;entryDx=0;entryDy=0;entryPerimeter=0;" edge="1" parent="R7gVYazL5rgEZHo6psz_-6" source="R7gVYazL5rgEZHo6psz_-29" target="R7gVYazL5rgEZHo6psz_-11">
          <mxGeometry width="80" relative="1" as="geometry">
            <mxPoint x="215" y="160" as="sourcePoint" />
            <mxPoint x="295" y="160" as="targetPoint" />
          </mxGeometry>
        </mxCell>
        <mxCell id="R7gVYazL5rgEZHo6psz_-46" value="callback" style="html=1;verticalAlign=bottom;endArrow=open;dashed=1;endSize=8;entryX=0.25;entryY=0;entryDx=0;entryDy=0;exitX=0.228;exitY=1.046;exitDx=0;exitDy=0;exitPerimeter=0;" edge="1" parent="R7gVYazL5rgEZHo6psz_-6" source="R7gVYazL5rgEZHo6psz_-11" target="R7gVYazL5rgEZHo6psz_-29">
          <mxGeometry relative="1" as="geometry">
            <mxPoint x="295" y="160" as="sourcePoint" />
            <mxPoint x="215" y="160" as="targetPoint" />
          </mxGeometry>
        </mxCell>
        <mxCell id="R7gVYazL5rgEZHo6psz_-47" value="callback" style="html=1;verticalAlign=bottom;endArrow=block;exitX=0.814;exitY=-0.017;exitDx=0;exitDy=0;entryX=0.9;entryY=1.023;entryDx=0;entryDy=0;entryPerimeter=0;exitPerimeter=0;dashed=1;" edge="1" parent="R7gVYazL5rgEZHo6psz_-6" source="R7gVYazL5rgEZHo6psz_-29" target="R7gVYazL5rgEZHo6psz_-11">
          <mxGeometry width="80" relative="1" as="geometry">
            <mxPoint x="119.4079999999999" y="285.85" as="sourcePoint" />
            <mxPoint x="119.65000000000009" y="215.55000000000007" as="targetPoint" />
          </mxGeometry>
        </mxCell>
        <mxCell id="R7gVYazL5rgEZHo6psz_-48" value="call" style="html=1;verticalAlign=bottom;endArrow=open;endSize=8;entryX=0.708;entryY=0.006;entryDx=0;entryDy=0;exitX=0.776;exitY=1.023;exitDx=0;exitDy=0;exitPerimeter=0;entryPerimeter=0;" edge="1" parent="R7gVYazL5rgEZHo6psz_-6" source="R7gVYazL5rgEZHo6psz_-11" target="R7gVYazL5rgEZHo6psz_-29">
          <mxGeometry relative="1" as="geometry">
            <mxPoint x="164.79999999999995" y="217.30000000000007" as="sourcePoint" />
            <mxPoint x="166" y="285" as="targetPoint" />
          </mxGeometry>
        </mxCell>
      </root>
    </mxGraphModel>
  </diagram>
</mxfile>
